<svg xmlns="http://www.w3.org/2000/svg" xmlns:xlink="http://www.w3.org/1999/xlink" width="200" zoomAndPan="magnify" viewBox="0 0 150 112.499997" height="150" preserveAspectRatio="xMidYMid meet" version="1.0"><defs><g/><clipPath id="4267c6d4c5"><path d="M 62.160156 16.230469 L 87.546875 16.230469 L 87.546875 55 L 62.160156 55 Z M 62.160156 16.230469 " clip-rule="nonzero"/></clipPath></defs><g clip-path="url(#4267c6d4c5)"><path fill="#ffffff" d="M 74.996094 16.453125 C 67.902344 16.453125 62.148438 22.207031 62.148438 29.300781 C 62.148438 36.394531 74.996094 54.992188 74.996094 54.992188 C 74.996094 54.992188 87.84375 36.394531 87.84375 29.300781 C 87.84375 22.207031 82.089844 16.453125 74.996094 16.453125 Z M 74.996094 35.386719 C 71.261719 35.386719 68.234375 32.359375 68.234375 28.621094 C 68.234375 24.890625 71.261719 21.863281 74.996094 21.863281 C 78.730469 21.863281 81.757812 24.890625 81.757812 28.621094 C 81.757812 32.359375 78.730469 35.386719 74.996094 35.386719 Z M 74.996094 35.386719 " fill-opacity="1" fill-rule="nonzero"/></g><g fill="#ffffff" fill-opacity="1"><g transform="translate(38.581007, 78.658184)"><g><path d="M 3.09375 -7.191406 L 3.09375 -13.082031 L 6.464844 -13.082031 C 7.339844 -13.082031 8.046875 -12.804688 8.578125 -12.269531 C 9.089844 -11.714844 9.367188 -11.03125 9.367188 -10.179688 C 9.367188 -9.304688 9.089844 -8.601562 8.535156 -8.023438 C 7.980469 -7.46875 7.296875 -7.191406 6.464844 -7.191406 Z M 10.863281 -10.136719 C 10.863281 -11.417969 10.394531 -12.460938 9.496094 -13.292969 C 8.601562 -14.105469 7.53125 -14.511719 6.253906 -14.511719 L 1.601562 -14.511719 L 1.601562 0 L 3.09375 0 L 3.09375 -5.742188 L 6.253906 -5.742188 C 7.53125 -5.742188 8.621094 -6.144531 9.496094 -6.957031 C 10.394531 -7.808594 10.863281 -8.855469 10.863281 -10.136719 Z M 10.863281 -10.136719 "/></g></g></g><g fill="#ffffff" fill-opacity="1"><g transform="translate(49.869947, 78.658184)"><g><path d="M 3.117188 -12.632812 C 2.921875 -12.804688 2.6875 -12.910156 2.433594 -12.910156 C 2.175781 -12.910156 1.941406 -12.804688 1.769531 -12.632812 C 1.578125 -12.441406 1.492188 -12.207031 1.492188 -11.949219 C 1.492188 -11.695312 1.578125 -11.460938 1.769531 -11.289062 C 1.941406 -11.097656 2.175781 -11.011719 2.433594 -11.011719 C 2.6875 -11.011719 2.921875 -11.097656 3.117188 -11.289062 C 3.285156 -11.460938 3.394531 -11.695312 3.394531 -11.949219 C 3.394531 -12.207031 3.285156 -12.441406 3.117188 -12.632812 Z M 3.199219 0 L 3.199219 -9.390625 L 1.707031 -9.390625 L 1.707031 0 Z M 3.199219 0 "/></g></g></g><g fill="#ffffff" fill-opacity="1"><g transform="translate(54.756839, 78.658184)"><g><path d="M 8.089844 0 L 9.582031 0 L 9.582031 -5.867188 C 9.582031 -6.957031 9.28125 -7.832031 8.726562 -8.492188 C 8.429688 -8.835938 8.089844 -9.089844 7.683594 -9.28125 C 7.253906 -9.476562 6.722656 -9.582031 6.0625 -9.582031 C 5.378906 -9.582031 4.800781 -9.390625 4.289062 -9.046875 C 3.796875 -8.726562 3.394531 -8.300781 3.09375 -7.769531 L 3.09375 -9.390625 L 1.601562 -9.390625 L 1.601562 0 L 3.09375 0 L 3.09375 -3.925781 C 3.09375 -5.121094 3.308594 -6.0625 3.757812 -6.765625 C 4.011719 -7.148438 4.332031 -7.46875 4.738281 -7.726562 C 5.121094 -7.960938 5.65625 -8.089844 6.296875 -8.089844 C 6.933594 -8.089844 7.382812 -7.851562 7.660156 -7.425781 C 7.9375 -7 8.089844 -6.464844 8.089844 -5.867188 Z M 8.089844 0 "/></g></g></g><g fill="#ffffff" fill-opacity="1"><g transform="translate(65.61897, 78.658184)"><g><path d="M 3.09375 -7.191406 L 3.09375 -13.082031 L 6.464844 -13.082031 C 7.339844 -13.082031 8.046875 -12.804688 8.578125 -12.269531 C 9.089844 -11.714844 9.367188 -11.03125 9.367188 -10.179688 C 9.367188 -9.304688 9.089844 -8.601562 8.535156 -8.023438 C 7.980469 -7.46875 7.296875 -7.191406 6.464844 -7.191406 Z M 10.863281 -10.136719 C 10.863281 -11.417969 10.394531 -12.460938 9.496094 -13.292969 C 8.601562 -14.105469 7.53125 -14.511719 6.253906 -14.511719 L 1.601562 -14.511719 L 1.601562 0 L 3.09375 0 L 3.09375 -5.742188 L 6.253906 -5.742188 C 7.53125 -5.742188 8.621094 -6.144531 9.496094 -6.957031 C 10.394531 -7.808594 10.863281 -8.855469 10.863281 -10.136719 Z M 10.863281 -10.136719 "/></g></g></g><g fill="#ffffff" fill-opacity="1"><g transform="translate(76.90791, 78.658184)"><g><path d="M 9.28125 -4.738281 C 9.28125 -3.796875 8.941406 -3.007812 8.28125 -2.347656 C 7.597656 -1.664062 6.808594 -1.34375 5.867188 -1.34375 C 4.929688 -1.34375 4.117188 -1.664062 3.457031 -2.347656 C 2.773438 -3.007812 2.453125 -3.796875 2.453125 -4.738281 C 2.453125 -5.675781 2.773438 -6.464844 3.457031 -7.148438 C 4.117188 -7.808594 4.929688 -8.152344 5.867188 -8.152344 C 6.808594 -8.152344 7.597656 -7.808594 8.28125 -7.148438 C 8.941406 -6.464844 9.28125 -5.675781 9.28125 -4.738281 Z M 10.777344 -4.738281 C 10.777344 -6.082031 10.285156 -7.234375 9.324219 -8.195312 C 8.367188 -9.15625 7.214844 -9.644531 5.867188 -9.644531 C 4.503906 -9.644531 3.351562 -9.15625 2.390625 -8.195312 C 1.429688 -7.234375 0.960938 -6.082031 0.960938 -4.738281 C 0.960938 -3.371094 1.429688 -2.21875 2.390625 -1.28125 C 3.351562 -0.320312 4.523438 0.148438 5.867188 0.148438 C 7.191406 0.148438 8.367188 -0.320312 9.324219 -1.28125 C 10.285156 -2.21875 10.777344 -3.371094 10.777344 -4.738281 Z M 10.777344 -4.738281 "/></g></g></g><g fill="#ffffff" fill-opacity="1"><g transform="translate(88.644994, 78.658184)"><g><path d="M 3.117188 -12.632812 C 2.921875 -12.804688 2.6875 -12.910156 2.433594 -12.910156 C 2.175781 -12.910156 1.941406 -12.804688 1.769531 -12.632812 C 1.578125 -12.441406 1.492188 -12.207031 1.492188 -11.949219 C 1.492188 -11.695312 1.578125 -11.460938 1.769531 -11.289062 C 1.941406 -11.097656 2.175781 -11.011719 2.433594 -11.011719 C 2.6875 -11.011719 2.921875 -11.097656 3.117188 -11.289062 C 3.285156 -11.460938 3.394531 -11.695312 3.394531 -11.949219 C 3.394531 -12.207031 3.285156 -12.441406 3.117188 -12.632812 Z M 3.199219 0 L 3.199219 -9.390625 L 1.707031 -9.390625 L 1.707031 0 Z M 3.199219 0 "/></g></g></g><g fill="#ffffff" fill-opacity="1"><g transform="translate(93.531886, 78.658184)"><g><path d="M 8.089844 0 L 9.582031 0 L 9.582031 -5.867188 C 9.582031 -6.957031 9.28125 -7.832031 8.726562 -8.492188 C 8.429688 -8.835938 8.089844 -9.089844 7.683594 -9.28125 C 7.253906 -9.476562 6.722656 -9.582031 6.0625 -9.582031 C 5.378906 -9.582031 4.800781 -9.390625 4.289062 -9.046875 C 3.796875 -8.726562 3.394531 -8.300781 3.09375 -7.769531 L 3.09375 -9.390625 L 1.601562 -9.390625 L 1.601562 0 L 3.09375 0 L 3.09375 -3.925781 C 3.09375 -5.121094 3.308594 -6.0625 3.757812 -6.765625 C 4.011719 -7.148438 4.332031 -7.46875 4.738281 -7.726562 C 5.121094 -7.960938 5.65625 -8.089844 6.296875 -8.089844 C 6.933594 -8.089844 7.382812 -7.851562 7.660156 -7.425781 C 7.9375 -7 8.089844 -6.464844 8.089844 -5.867188 Z M 8.089844 0 "/></g></g></g><g fill="#ffffff" fill-opacity="1"><g transform="translate(104.394017, 78.658184)"><g><path d="M 0.425781 -8.003906 L 2.773438 -8.003906 L 2.773438 0 L 4.269531 0 L 4.269531 -8.003906 L 6.59375 -8.003906 L 6.59375 -9.390625 L 4.269531 -9.390625 L 4.269531 -13.039062 L 2.773438 -13.039062 L 2.773438 -9.390625 L 0.425781 -9.390625 Z M 0.425781 -8.003906 "/></g></g></g></svg>