<svg xmlns="http://www.w3.org/2000/svg" xmlns:xlink="http://www.w3.org/1999/xlink" width="336" zoomAndPan="magnify" viewBox="0 0 252 143.999998" height="192" preserveAspectRatio="xMidYMid meet" version="1.0"><defs><g/><clipPath id="6a8c22f153"><path d="M 107.042969 14.398438 L 145 14.398438 L 145 72 L 107.042969 72 Z M 107.042969 14.398438 " clip-rule="nonzero"/></clipPath></defs><g clip-path="url(#6a8c22f153)"><path fill="#ffffff" d="M 126 14.730469 C 115.527344 14.730469 107.03125 23.222656 107.03125 33.699219 C 107.03125 44.171875 126 71.628906 126 71.628906 C 126 71.628906 144.964844 44.171875 144.964844 33.699219 C 144.964844 23.222656 136.472656 14.730469 126 14.730469 Z M 126 42.679688 C 120.484375 42.679688 116.015625 38.214844 116.015625 32.695312 C 116.015625 27.1875 120.484375 22.71875 126 22.71875 C 131.511719 22.71875 135.976562 27.1875 135.976562 32.695312 C 135.976562 38.214844 131.511719 42.679688 126 42.679688 Z M 126 42.679688 " fill-opacity="1" fill-rule="nonzero"/></g><g fill="#ffffff" fill-opacity="1"><g transform="translate(72.24218, 106.5509)"><g><path d="M 4.566406 -10.617188 L 4.566406 -19.308594 L 9.542969 -19.308594 C 10.835938 -19.308594 11.875 -18.898438 12.664062 -18.113281 C 13.417969 -17.292969 13.828125 -16.285156 13.828125 -15.027344 C 13.828125 -13.734375 13.417969 -12.695312 12.601562 -11.84375 C 11.78125 -11.023438 10.773438 -10.617188 9.542969 -10.617188 Z M 16.035156 -14.960938 C 16.035156 -16.851562 15.339844 -18.394531 14.015625 -19.625 C 12.695312 -20.820312 11.121094 -21.421875 9.230469 -21.421875 L 2.363281 -21.421875 L 2.363281 0 L 4.566406 0 L 4.566406 -8.472656 L 9.230469 -8.472656 C 11.121094 -8.472656 12.726562 -9.070312 14.015625 -10.269531 C 15.339844 -11.527344 16.035156 -13.074219 16.035156 -14.960938 Z M 16.035156 -14.960938 "/></g></g></g><g fill="#ffffff" fill-opacity="1"><g transform="translate(88.905703, 106.5509)"><g><path d="M 4.597656 -18.648438 C 4.316406 -18.898438 3.96875 -19.058594 3.589844 -19.058594 C 3.214844 -19.058594 2.867188 -18.898438 2.613281 -18.648438 C 2.332031 -18.363281 2.203125 -18.019531 2.203125 -17.640625 C 2.203125 -17.261719 2.332031 -16.914062 2.613281 -16.664062 C 2.867188 -16.378906 3.214844 -16.253906 3.589844 -16.253906 C 3.96875 -16.253906 4.316406 -16.378906 4.597656 -16.664062 C 4.851562 -16.914062 5.007812 -17.261719 5.007812 -17.640625 C 5.007812 -18.019531 4.851562 -18.363281 4.597656 -18.648438 Z M 4.726562 0 L 4.726562 -13.859375 L 2.519531 -13.859375 L 2.519531 0 Z M 4.726562 0 "/></g></g></g><g fill="#ffffff" fill-opacity="1"><g transform="translate(96.119211, 106.5509)"><g><path d="M 11.9375 0 L 14.144531 0 L 14.144531 -8.664062 C 14.144531 -10.269531 13.703125 -11.558594 12.882812 -12.535156 C 12.441406 -13.039062 11.9375 -13.417969 11.339844 -13.703125 C 10.710938 -13.984375 9.921875 -14.144531 8.945312 -14.144531 C 7.9375 -14.144531 7.085938 -13.859375 6.332031 -13.355469 C 5.605469 -12.882812 5.007812 -12.253906 4.566406 -11.464844 L 4.566406 -13.859375 L 2.363281 -13.859375 L 2.363281 0 L 4.566406 0 L 4.566406 -5.796875 C 4.566406 -7.558594 4.882812 -8.945312 5.542969 -9.984375 C 5.921875 -10.550781 6.394531 -11.023438 6.992188 -11.402344 C 7.558594 -11.75 8.347656 -11.9375 9.292969 -11.9375 C 10.238281 -11.9375 10.898438 -11.59375 11.308594 -10.960938 C 11.71875 -10.332031 11.9375 -9.542969 11.9375 -8.664062 Z M 11.9375 0 "/></g></g></g><g fill="#ffffff" fill-opacity="1"><g transform="translate(112.152726, 106.5509)"><g><path d="M 4.566406 -10.617188 L 4.566406 -19.308594 L 9.542969 -19.308594 C 10.835938 -19.308594 11.875 -18.898438 12.664062 -18.113281 C 13.417969 -17.292969 13.828125 -16.285156 13.828125 -15.027344 C 13.828125 -13.734375 13.417969 -12.695312 12.601562 -11.84375 C 11.78125 -11.023438 10.773438 -10.617188 9.542969 -10.617188 Z M 16.035156 -14.960938 C 16.035156 -16.851562 15.339844 -18.394531 14.015625 -19.625 C 12.695312 -20.820312 11.121094 -21.421875 9.230469 -21.421875 L 2.363281 -21.421875 L 2.363281 0 L 4.566406 0 L 4.566406 -8.472656 L 9.230469 -8.472656 C 11.121094 -8.472656 12.726562 -9.070312 14.015625 -10.269531 C 15.339844 -11.527344 16.035156 -13.074219 16.035156 -14.960938 Z M 16.035156 -14.960938 "/></g></g></g><g fill="#ffffff" fill-opacity="1"><g transform="translate(128.81625, 106.5509)"><g><path d="M 13.703125 -6.992188 C 13.703125 -5.605469 13.199219 -4.441406 12.222656 -3.464844 C 11.214844 -2.457031 10.046875 -1.984375 8.664062 -1.984375 C 7.277344 -1.984375 6.078125 -2.457031 5.101562 -3.464844 C 4.09375 -4.441406 3.621094 -5.605469 3.621094 -6.992188 C 3.621094 -8.378906 4.09375 -9.542969 5.101562 -10.550781 C 6.078125 -11.527344 7.277344 -12.03125 8.664062 -12.03125 C 10.046875 -12.03125 11.214844 -11.527344 12.222656 -10.550781 C 13.199219 -9.542969 13.703125 -8.378906 13.703125 -6.992188 Z M 15.90625 -6.992188 C 15.90625 -8.976562 15.183594 -10.679688 13.765625 -12.097656 C 12.347656 -13.511719 10.648438 -14.238281 8.664062 -14.238281 C 6.648438 -14.238281 4.945312 -13.511719 3.527344 -12.097656 C 2.109375 -10.679688 1.417969 -8.976562 1.417969 -6.992188 C 1.417969 -4.976562 2.109375 -3.277344 3.527344 -1.890625 C 4.945312 -0.472656 6.679688 0.21875 8.664062 0.21875 C 10.617188 0.21875 12.347656 -0.472656 13.765625 -1.890625 C 15.183594 -3.277344 15.90625 -4.976562 15.90625 -6.992188 Z M 15.90625 -6.992188 "/></g></g></g><g fill="#ffffff" fill-opacity="1"><g transform="translate(146.141277, 106.5509)"><g><path d="M 4.597656 -18.648438 C 4.316406 -18.898438 3.96875 -19.058594 3.589844 -19.058594 C 3.214844 -19.058594 2.867188 -18.898438 2.613281 -18.648438 C 2.332031 -18.363281 2.203125 -18.019531 2.203125 -17.640625 C 2.203125 -17.261719 2.332031 -16.914062 2.613281 -16.664062 C 2.867188 -16.378906 3.214844 -16.253906 3.589844 -16.253906 C 3.96875 -16.253906 4.316406 -16.378906 4.597656 -16.664062 C 4.851562 -16.914062 5.007812 -17.261719 5.007812 -17.640625 C 5.007812 -18.019531 4.851562 -18.363281 4.597656 -18.648438 Z M 4.726562 0 L 4.726562 -13.859375 L 2.519531 -13.859375 L 2.519531 0 Z M 4.726562 0 "/></g></g></g><g fill="#ffffff" fill-opacity="1"><g transform="translate(153.354785, 106.5509)"><g><path d="M 11.9375 0 L 14.144531 0 L 14.144531 -8.664062 C 14.144531 -10.269531 13.703125 -11.558594 12.882812 -12.535156 C 12.441406 -13.039062 11.9375 -13.417969 11.339844 -13.703125 C 10.710938 -13.984375 9.921875 -14.144531 8.945312 -14.144531 C 7.9375 -14.144531 7.085938 -13.859375 6.332031 -13.355469 C 5.605469 -12.882812 5.007812 -12.253906 4.566406 -11.464844 L 4.566406 -13.859375 L 2.363281 -13.859375 L 2.363281 0 L 4.566406 0 L 4.566406 -5.796875 C 4.566406 -7.558594 4.882812 -8.945312 5.542969 -9.984375 C 5.921875 -10.550781 6.394531 -11.023438 6.992188 -11.402344 C 7.558594 -11.75 8.347656 -11.9375 9.292969 -11.9375 C 10.238281 -11.9375 10.898438 -11.59375 11.308594 -10.960938 C 11.71875 -10.332031 11.9375 -9.542969 11.9375 -8.664062 Z M 11.9375 0 "/></g></g></g><g fill="#ffffff" fill-opacity="1"><g transform="translate(169.3883, 106.5509)"><g><path d="M 0.628906 -11.8125 L 4.09375 -11.8125 L 4.09375 0 L 6.300781 0 L 6.300781 -11.8125 L 9.734375 -11.8125 L 9.734375 -13.859375 L 6.300781 -13.859375 L 6.300781 -19.246094 L 4.09375 -19.246094 L 4.09375 -13.859375 L 0.628906 -13.859375 Z M 0.628906 -11.8125 "/></g></g></g></svg>