<svg xmlns="http://www.w3.org/2000/svg" xmlns:xlink="http://www.w3.org/1999/xlink" width="200" zoomAndPan="magnify" viewBox="0 0 150 74.999997" height="100" preserveAspectRatio="xMidYMid meet" version="1.0"><defs><g/><clipPath id="0870fee963"><path d="M 65.339844 11 L 84.839844 11 L 84.839844 40.117188 L 65.339844 40.117188 Z M 65.339844 11 " clip-rule="nonzero"/></clipPath></defs><g clip-path="url(#0870fee963)"><path fill="#ffffff" d="M 74.996094 11.035156 C 69.660156 11.035156 65.335938 15.363281 65.335938 20.699219 C 65.335938 26.035156 74.996094 40.023438 74.996094 40.023438 C 74.996094 40.023438 84.65625 26.035156 84.65625 20.699219 C 84.65625 15.363281 80.332031 11.035156 74.996094 11.035156 Z M 74.996094 25.273438 C 72.1875 25.273438 69.910156 23 69.910156 20.191406 C 69.910156 17.382812 72.1875 15.105469 74.996094 15.105469 C 77.804688 15.105469 80.078125 17.382812 80.078125 20.191406 C 80.078125 23 77.804688 25.273438 74.996094 25.273438 Z M 74.996094 25.273438 " fill-opacity="1" fill-rule="nonzero"/></g><g fill="#ffffff" fill-opacity="1"><g transform="translate(39.687737, 58.385732)"><g><path d="M 4.039062 -4.675781 L 6.0625 -4.675781 C 8.179688 -4.675781 10.0625 -6.234375 10.0625 -8.890625 C 10.0625 -11.371094 8.179688 -13.085938 6.0625 -13.085938 L 1.15625 -13.085938 L 1.15625 0 L 4.039062 0 Z M 5.582031 -10.8125 C 6.425781 -10.8125 7.3125 -10.082031 7.3125 -8.890625 C 7.3125 -7.640625 6.425781 -6.945312 5.582031 -6.945312 L 4.039062 -6.945312 L 4.039062 -10.8125 Z M 5.582031 -10.8125 "/></g></g></g><g fill="#ffffff" fill-opacity="1"><g transform="translate(50.039443, 58.385732)"><g><path d="M 1 -11.390625 C 1 -10.46875 1.75 -9.699219 2.695312 -9.699219 C 3.617188 -9.699219 4.386719 -10.46875 4.386719 -11.390625 C 4.386719 -12.335938 3.617188 -13.085938 2.695312 -13.085938 C 1.75 -13.085938 1 -12.335938 1 -11.390625 Z M 4.136719 0 L 4.136719 -8.484375 L 1.25 -8.484375 L 1.25 0 Z M 4.136719 0 "/></g></g></g><g fill="#ffffff" fill-opacity="1"><g transform="translate(55.426946, 58.385732)"><g><path d="M 9.832031 -4.8125 C 9.832031 -7.121094 8.910156 -8.679688 6.636719 -8.679688 C 5.523438 -8.679688 4.617188 -8.179688 4.039062 -7.445312 L 4.039062 -8.484375 L 1.15625 -8.484375 L 1.15625 0 L 4.039062 0 L 4.039062 -4.234375 C 4.039062 -5.386719 4.753906 -6.351562 5.65625 -6.351562 C 6.5625 -6.351562 6.945312 -5.8125 6.945312 -4.8125 L 6.945312 0 L 9.832031 0 Z M 9.832031 -4.8125 "/></g></g></g><g fill="#ffffff" fill-opacity="1"><g transform="translate(66.124992, 58.385732)"><g><path d="M 4.039062 -4.675781 L 6.0625 -4.675781 C 8.179688 -4.675781 10.0625 -6.234375 10.0625 -8.890625 C 10.0625 -11.371094 8.179688 -13.085938 6.0625 -13.085938 L 1.15625 -13.085938 L 1.15625 0 L 4.039062 0 Z M 5.582031 -10.8125 C 6.425781 -10.8125 7.3125 -10.082031 7.3125 -8.890625 C 7.3125 -7.640625 6.425781 -6.945312 5.582031 -6.945312 L 4.039062 -6.945312 L 4.039062 -10.8125 Z M 5.582031 -10.8125 "/></g></g></g><g fill="#ffffff" fill-opacity="1"><g transform="translate(76.476698, 58.385732)"><g><path d="M 5.523438 -2 C 3.964844 -2 3.539062 -3.136719 3.539062 -4.214844 C 3.539062 -5.273438 4.003906 -6.40625 5.523438 -6.40625 C 7.023438 -6.40625 7.484375 -5.273438 7.484375 -4.214844 C 7.484375 -3.136719 7.0625 -2 5.523438 -2 Z M 5.523438 -8.660156 C 2.867188 -8.660156 0.671875 -6.890625 0.671875 -4.234375 C 0.671875 -1.519531 2.808594 0.171875 5.523438 0.171875 C 8.214844 0.171875 10.351562 -1.519531 10.351562 -4.234375 C 10.351562 -6.890625 8.160156 -8.660156 5.523438 -8.660156 Z M 5.523438 -8.660156 "/></g></g></g><g fill="#ffffff" fill-opacity="1"><g transform="translate(87.501842, 58.385732)"><g><path d="M 1 -11.390625 C 1 -10.46875 1.75 -9.699219 2.695312 -9.699219 C 3.617188 -9.699219 4.386719 -10.46875 4.386719 -11.390625 C 4.386719 -12.335938 3.617188 -13.085938 2.695312 -13.085938 C 1.75 -13.085938 1 -12.335938 1 -11.390625 Z M 4.136719 0 L 4.136719 -8.484375 L 1.25 -8.484375 L 1.25 0 Z M 4.136719 0 "/></g></g></g><g fill="#ffffff" fill-opacity="1"><g transform="translate(92.889344, 58.385732)"><g><path d="M 9.832031 -4.8125 C 9.832031 -7.121094 8.910156 -8.679688 6.636719 -8.679688 C 5.523438 -8.679688 4.617188 -8.179688 4.039062 -7.445312 L 4.039062 -8.484375 L 1.15625 -8.484375 L 1.15625 0 L 4.039062 0 L 4.039062 -4.234375 C 4.039062 -5.386719 4.753906 -6.351562 5.65625 -6.351562 C 6.5625 -6.351562 6.945312 -5.8125 6.945312 -4.8125 L 6.945312 0 L 9.832031 0 Z M 9.832031 -4.8125 "/></g></g></g><g fill="#ffffff" fill-opacity="1"><g transform="translate(103.58739, 58.385732)"><g><path d="M 4.792969 -6.253906 L 6.332031 -6.253906 L 6.332031 -8.484375 L 4.792969 -8.484375 L 4.792969 -11.71875 L 1.925781 -11.71875 L 1.925781 -8.484375 L 0.386719 -8.484375 L 0.386719 -6.253906 L 1.925781 -6.253906 L 1.925781 0 L 4.792969 0 Z M 4.792969 -6.253906 "/></g></g></g></svg>